<svg width="200" height="60" viewBox="0 0 200 60" fill="none" xmlns="http://www.w3.org/2000/svg">
  <!-- Square icon -->
  <rect x="5" y="15" width="30" height="30" rx="3" fill="#000000"/>
  
  <!-- Square text -->
  <g fill="#000000">
    <!-- S -->
    <path d="M 50 38 Q 50 42 54 42 Q 58 42 58 38 L 58 36 Q 58 34 56 34 L 52 34 Q 48 34 48 30 L 48 28 Q 48 24 52 24 L 56 24 Q 60 24 60 28 L 56 28 Q 56 26 54 26 Q 52 26 52 28 L 52 30 Q 52 32 54 32 L 58 32 Q 62 32 62 36 L 62 38 Q 62 42 58 42 L 54 42 Q 50 42 50 38 Z" 
          transform="translate(0, -2)"/>
    
    <!-- q -->
    <path d="M 68 42 L 72 42 L 72 24 L 68 24 L 68 28 Q 66 24 62 24 Q 58 24 58 28 L 58 38 Q 58 42 62 42 Q 66 42 68 38 Z M 68 38 Q 68 38 66 38 Q 64 38 64 36 L 64 30 Q 64 28 66 28 Q 68 28 68 30 Z" 
          transform="translate(0, -2)"/>
    
    <!-- u -->
    <path d="M 78 42 L 82 42 L 82 28 L 82 28 Q 82 24 86 24 Q 90 24 90 28 L 90 42 L 94 42 L 94 28 Q 94 24 90 24 Q 86 24 84 28 L 84 24 L 78 24 Z" 
          transform="translate(0, -2)"/>
    
    <!-- a -->
    <path d="M 100 42 L 104 42 L 104 38 Q 106 42 110 42 Q 114 42 114 38 L 114 36 Q 114 32 110 32 L 106 32 Q 104 32 104 30 L 104 28 Q 104 28 106 28 Q 108 28 108 30 L 112 30 Q 112 24 106 24 Q 100 24 100 30 L 100 38 Z M 104 36 L 104 34 L 108 34 Q 110 34 110 36 Q 110 38 108 38 Q 106 38 104 36 Z" 
          transform="translate(0, -2)"/>
    
    <!-- r -->
    <path d="M 120 42 L 124 42 L 124 30 Q 124 28 126 28 L 128 28 L 128 24 L 126 24 Q 124 24 124 26 L 124 24 L 120 24 Z" 
          transform="translate(0, -2)"/>
    
    <!-- e -->
    <path d="M 134 42 Q 138 42 138 38 L 138 36 L 132 36 L 132 34 Q 132 32 134 32 L 136 32 Q 138 32 138 34 L 142 34 Q 142 28 136 28 L 134 28 Q 130 28 130 32 L 130 38 Q 130 42 134 42 Z M 132 38 L 132 38 L 134 38 Q 136 38 136 38 L 136 38 Z" 
          transform="translate(0, -2)"/>
  </g>
</svg>

